<mxfile host="app.diagrams.net" modified="2024-07-13T04:24:49.715Z" agent="Mozilla/5.0 (Windows NT 10.0; Win64; x64) AppleWebKit/537.36 (KHTML, like Gecko) Chrome/126.0.0.0 Safari/537.36" version="24.6.5" etag="zTTiF0SHy34vkokxCG4R" type="github">
  <diagram name="Page-1" id="mWOwHAFnnGotzb68UGMo">
    <mxGraphModel>
      <root>
        <mxCell id="0" />
        <mxCell id="1" parent="0" />
      </root>
    </mxGraphModel>
  </diagram>
</mxfile>
